<svg xmlns="http://www.w3.org/2000/svg" viewBox="-35.65 -71.05 71.3 85.81" width="132.95" height="160">
<g stroke-width="1.01" stroke-linejoin="round">
<path d="M27.78 -9.21C37.95 -18.02 36.68 -36.16 24.93 -49.73C13.18 -63.3 -4.6 -67.16 -14.78 -58.34L-27.78 -47.08C-37.95 -38.27 -36.68 -20.13 -24.93 -6.56C-13.18 7.01 4.6 10.86 14.78 2.05Z" fill="#212121" stroke="#111111"/>
<path d="M27.78 -9.21 30.65 -12.35 32.8 -16.15 19.8 -4.89 17.65 -1.09 14.78 2.05Z" fill="#151515"/>
<path d="M32.8 -16.15 34.14 -20.48 34.64 -25.21 34.29 -30.21 21.29 -18.95 21.64 -13.95 21.14 -9.22 19.8 -4.89Z" fill="#181818"/>
<path d="M34.29 -30.21 33.1 -35.31 20.1 -24.05 21.29 -18.95Z" fill="#1b1b1b"/>
<path d="M33.1 -35.31 31.09 -40.37 28.34 -45.22 15.34 -33.97 18.09 -29.11 20.1 -24.05Z" fill="#1e1e1e"/>
<path d="M24.93 -49.73 20.95 -53.76 16.54 -57.17 3.54 -45.91 7.95 -42.5 11.93 -38.47Z" fill="#343434"/>
<path d="M16.54 -57.17 11.82 -59.88 -1.18 -48.62 3.54 -45.91Z" fill="#484848"/>
<path d="M11.82 -59.88 6.94 -61.79 2.05 -62.85 -2.71 -63.03 -15.71 -51.77 -10.95 -51.59 -6.06 -50.53 -1.18 -48.62Z" fill="#5b5b5b"/>
<path d="M-2.71 -63.03 -7.19 -62.32 -11.25 -60.74 -14.78 -58.34 -27.78 -47.08 -24.25 -49.48 -20.19 -51.06 -15.71 -51.77Z" fill="#6f6f6f"/>
<path d="M21.65 -14.39C21.65 -29.94 9.04 -46.18 -6.5 -50.66C-22.04 -55.15 -34.65 -46.19 -34.65 -30.64C-34.65 -15.1 -22.04 1.14 -6.5 5.63C9.04 10.12 21.65 1.15 21.65 -14.39Z" fill="#212121" stroke="#111111"/>
<path d="M10.95 -17.48C10.95 -27.12 3.14 -37.18 -6.5 -39.97C-16.14 -42.75 -23.95 -37.19 -23.95 -27.55C-23.95 -17.92 -16.14 -7.85 -6.5 -5.07C3.14 -2.28 10.95 -7.84 10.95 -17.48Z" fill="#ffca28" stroke="#806514"/>
<path d="M-2 -21.22C-2 -23.7 -4.01 -26.3 -6.5 -27.02C-8.99 -27.74 -11 -26.3 -11 -23.82C-11 -21.33 -8.99 -18.73 -6.5 -18.01C-4.01 -17.3 -2 -18.73 -2 -21.22Z" fill="#59470e" stroke="#2d2407"/>
</g>
</svg>
